<svg width="23" height="23" viewBox="0 0 23 23" fill="none" xmlns="http://www.w3.org/2000/svg">
<path d="M17.6 3.9C18.4 3.9 19 4.5 19 5.3C19 6.1 18.4 6.7 17.6 6.7C16.8 6.7 16.2 6.1 16.2 5.3C16.2 4.5 16.7 3.9 17.6 3.9ZM11.5 15.4C13.6 15.4 15.4 13.6 15.4 11.5C15.4 9.4 13.6 7.6 11.5 7.6C9.4 7.6 7.6 9.4 7.6 11.5C7.6 13.6 9.3 15.4 11.5 15.4ZM11.5 17.4C8.2 17.4 5.4 14.7 5.4 11.3C5.4 7.9 8.1 5.2 11.5 5.2C14.9 5.2 17.6 7.9 17.6 11.3C17.6 14.7 14.8 17.4 11.5 17.4ZM0 6.6C0 2.9 2.9 0 6.6 0H16.3C20 0 22.9 2.9 22.9 6.6V16.2C22.9 19.9 20 22.8 16.3 22.8H6.6C2.9 22.8 0 19.9 0 16.2V6.6ZM2.1 6.6V16.2C2.1 18.6 4.1 20.6 6.5 20.6H16.2C18.6 20.6 20.6 18.6 20.6 16.2V6.6C20.6 4.2 18.6 2.2 16.2 2.2H6.6C4.2 2.1 2.1 4.2 2.1 6.6V6.6Z" fill="black"/>
</svg>
