<svg width="123" height="114" viewBox="0 0 123 114" fill="none" xmlns="http://www.w3.org/2000/svg">
<path fill-rule="evenodd" clip-rule="evenodd" d="M122.847 75.449L122.844 75.463C122.844 57.018 111.218 42.763 91.7968 42.243C72.1668 41.716 64.4638 61.243 64.4638 61.243C59.8668 52.64 67.8958 35.118 92.1168 35.163C99.4238 35.175 104.093 37.153 105.458 37.816L83.7798 0.837997C83.7798 0.837997 65.1898 -3.594 45.2378 7.928C29.2628 17.148 22.7318 34.346 31.9908 51.425C41.3498 68.687 62.1118 65.595 62.1118 65.595C56.9598 73.878 37.7718 75.686 25.6998 54.69C22.0678 48.373 21.4398 43.351 21.3278 41.823L0.152832 79.069C0.152832 79.069 5.60883 97.383 25.5628 108.903C26.0148 109.163 26.4878 109.323 26.9438 109.566C42.5738 117.846 59.9758 114.711 69.8458 98.627C80.1158 81.891 67.0578 65.457 67.0578 65.457C76.8058 65.776 87.9678 81.49 75.8178 102.444C72.1658 108.744 68.1328 111.514 66.8618 112.376H109.715C109.715 112.376 122.847 98.494 122.847 75.454V75.449" fill="black"/>
</svg>
