<svg width="23" height="19" viewBox="0 0 23 19" fill="none" xmlns="http://www.w3.org/2000/svg">
<path d="M22.9 2.1C22 2.5 21.1 2.7 20.2 2.9C21.2 2.3 21.8 1.4 22.2 0.4C21.3 0.9 20.3 1.3 19.3 1.5C18.4 0.6 17.3 0 15.9 0C13.4 0 11.2 2.1 11.2 4.7C11.2 5.1 11.2 5.5 11.3 5.7C7.5 5.4 4 3.7 1.8 0.8C1.4 1.4 1.1 2.3 1.1 3.2C1.1 4.8 2 6.2 3.1 7.1C2.3 7.1 1.6 6.8 1 6.5C1 8.8 2.6 10.7 4.8 11C4.4 11.1 4 11.1 3.5 11.1C3.2 11.1 2.9 11.1 2.6 11C3.2 12.9 4.9 14.2 6.9 14.3C5.3 15.6 3.2 16.3 1.1 16.3C0.7 16.3 0.3 16.3 0 16.2C2 17.5 4.5 18.3 7.2 18.3C15.8 18.3 20.5 11.2 20.5 5V4.4C21.5 3.9 22.2 3.2 22.9 2.1" fill="black"/>
</svg>
